DataType=double
version=3
OpenSimVersion=4.4-2022-10-11-798caa840
endheader
time	ground_force_r_vx	ground_force_r_vy	ground_force_r_vz	ground_force_r_px	ground_force_r_py	ground_force_r_pz	ground_force_l_vx	ground_force_l_vy	ground_force_l_vz	ground_force_l_px	ground_force_l_py	ground_force_l_pz	ground_torque_r_x	ground_torque_r_y	ground_torque_r_z	ground_torque_l_x	ground_torque_l_y	ground_torque_l_z
2.975	91.16972165842293	719.6622123417421	-33.26784763165671	1.19223946811894	0	-0.4249329329598707	-6.002279380745153	5.178385333675676	-0.6143396719059533	1.636806036362948	0	-0.5776498359595901	0	1.050287566631567	0	0	2.134123778052555e-05	0
2.98	94.28334580767975	717.9503517889927	-32.92543867877617	1.193875496489108	0	-0.426733548024429	-10.37595621782138	9.842331379890465	-1.517663301217207	1.639164329671627	0	-0.5773366432705617	0	0.8159683256221868	0	0	0.0001124292078880096	0
2.985	97.32203297830324	714.3839897593109	-32.3791039965886	1.19561067442145	0	-0.4286322648351965	-16.75173357324454	17.69669359069665	-3.333850264790874	1.640847567209925	0	-0.577177959039316	0	0.620069905216674	0	0	0.000721873186927624	0
2.99	100.3924285863774	708.7367471161394	-31.67886755854477	1.197446767257982	0	-0.4306262385264261	-19.13674429597098	28.9467142634569	-5.660215250180578	1.642032843905381	0	-0.5773726973755288	0	0.4209170910216429	0	0	0.009474537341565892	0
2.995	103.3124221080839	701.0154490122213	-30.47694924198988	1.199360100786135	0	-0.432652935583296	-7.754331764759086	45.93830192086315	-5.360471475921062	1.643797150473344	0	-0.5781268595292799	0	0.1799020480951796	0	0	0.03787713537340487	0
3	106.1874818215105	691.3604936882409	-29.04460971748125	1.201304725956182	0	-0.4346430853068101	0.1185829992492116	81.5502615449923	-6.151067556726472	1.646622830230461	0	-0.5791845769263173	0	-0.174370487599532	0	0	0.132794801316324	0
3.005	108.9456608113807	679.7598429843999	-27.39296284590066	1.203256777103377	0	-0.4365642450890342	-0.2630624169535444	141.3036578712307	-7.68935632608552	1.650153369689945	0	-0.5804075098146115	0	-0.6685103173248592	0	0	0.4221686549996253	0
3.01	111.3928659257087	665.6745961626825	-25.46506555337318	1.205236852446238	0	-0.4383820980628335	-5.92517386848238	207.5768012832562	-9.170434742745289	1.655064328994446	0	-0.5816691833349639	0	-1.191463198121969	0	0	1.136373105343779	0
3.015	113.3212650770143	648.6336945135106	-23.46660436196235	1.20726878874591	0	-0.4400760546739541	-7.16368245120267	263.7433605824511	-11.38137884563431	1.663301223409656	0	-0.5826389415273298	0	-1.645108176581623	0	0	2.710064167750669	0
3.02	114.7477088601082	628.2392913448415	-21.51748210356538	1.209358992464306	0	-0.4415957459587202	-12.90590872336953	313.6174363939709	-14.62008649983742	1.677998394346299	0	-0.5834117243049567	0	-1.99404786814571	0	0	5.385993484673268	0
3.025	115.3759825854055	604.1947404586751	-19.67394204150425	1.211500277838628	0	-0.442844271046894	-22.6189521090019	354.2354519839932	-14.20660450198053	1.696363402436647	0	-0.5833227963040506	0	-2.239610336531761	0	0	7.573363532862484	0
3.03	114.7288350274461	575.9423657502755	-17.88434871352966	1.213712173154409	0	-0.4437567061261197	-30.70517235724579	379.2903579967231	-13.33974653149896	1.716828863234162	0	-0.581661451561673	0	-2.412607374909619	0	0	8.450557164482543	0
3.035	113.2143519375977	542.042178047359	-16.07649200388911	1.216119291228407	0	-0.4443539206278148	-41.78706040511626	399.9947890718353	-13.27164793919742	1.738725321445421	0	-0.5781222352908876	0	-2.511093720208386	0	0	8.387070695387909	0
3.04	111.3048164688685	502.4334787607833	-14.33848543791044	1.218914626739105	0	-0.4447172080089199	-51.90512082572656	409.8734355078556	-10.1119668249013	1.757601362777557	0	-0.5746473015365097	0	-2.486602631068397	0	0	7.893774411549192	0
3.045	109.2718065551744	457.7557282176609	-12.26689535572087	1.222292520000798	0	-0.444887268485279	-59.19573166808507	413.9939106618749	-6.415553365981815	1.773789549082795	0	-0.5717884263449563	0	-2.310240436438528	0	0	7.659015064074637	0
3.05	105.106702269394	404.8726125092702	-10.04489774088371	1.226581907877918	0	-0.4447762023195909	-66.84953309246649	417.7704712506449	-2.01974744085207	1.786328222083187	0	-0.5699147546988249	0	-2.000337391917419	0	0	7.568143664955147	0
3.055	95.95247853042784	335.5301976468734	-8.501692450392014	1.232922001625347	0	-0.4446934522222122	-73.38115003600578	423.8040898021351	3.394074377228847	1.795219017252727	0	-0.5691922762479922	0	-1.480463014937508	0	0	7.487595802515171	0
3.06	85.14045855205197	256.2678387521669	-6.659090896257397	1.242668232622273	0	-0.445163714379572	-79.70773093132193	429.7833095533275	9.038981407592475	1.80131871776641	0	-0.5694041765558867	0	-0.7633838140653797	0	0	7.329203238102632	0
3.065	78.60362815196092	201.484043599092	-4.834385624038998	1.251173589914056	0	-0.4475070267828696	-85.45630213522965	436.0049257048073	13.83012018835044	1.805562189158139	0	-0.5702904730770373	0	-0.207451973274412	0	0	7.127792126179216	0
3.07	74.15696145231702	181.0276035030859	-4.11128969819006	1.252853943369784	0	-0.450740921338078	-90.99744847073023	443.1405590335287	18.57303472546989	1.808335543849916	0	-0.571776690056777	0	-0.02268097753928622	0	0	6.756759533713364	0
3.075	66.89801748844958	173.4807924790302	-3.570355739745656	1.253509538176747	0	-0.4512749044293096	-95.34804805512016	452.2416943212176	22.8662980008582	1.809937552619401	0	-0.5737814798159399	0	0.009508435081105659	0	0	6.202776177386333	0
3.08	58.11457495333212	171.3941985673949	-2.639980016056601	1.253959344774904	0	-0.4512437417427844	-98.74022915743979	462.730960259816	26.38584822718675	1.810749624945533	0	-0.576086306689592	0	0.00811427963978506	0	0	5.607624459892307	0
3.085	49.32739539929773	170.7649725494528	-2.308453219645549	1.254513274064873	0	-0.4512327913453542	-100.9118367573568	474.5413790780848	29.1969425147837	1.811093694065249	0	-0.5785235027615916	0	0.006745306797627748	0	0	5.100133636886447	0
3.09	41.12113234324424	170.0960367986486	-2.351965404379551	1.255182604378382	0	-0.4512231848388723	-101.6852369019126	488.0992906834218	31.94320188832008	1.811129577606536	0	-0.5810404488160987	0	0.004755049200288131	0	0	4.653048397411915	0
3.095	32.49503234947077	166.2520013643987	-1.98418384287111	1.255963283862044	0	-0.4512184117622521	-101.2484532917948	503.2863185858852	34.40640900514846	1.810944531509426	0	-0.5836091970224875	0	0.003709455447409304	0	0	4.220878901452849	0
3.1	25.78438920014459	156.2368879713329	-2.074630539686827	1.256895791221201	0	-0.4512071632442937	-99.86396443142513	519.5845792264405	36.72694284658501	1.810605381154036	0	-0.5861845749610107	0	0.0006496248182892295	0	0	3.807340621030029	0
3.105	20.24032653855173	138.7955946095819	-2.148775904625903	1.257985030957407	0	-0.4512319342873183	-97.83566247235723	536.6275512906866	39.10561111855245	1.810187541208633	0	-0.5886791566194096	0	1.042637254800027e-05	0	0	3.388749527934692	0
3.11	15.56763318797686	115.179846390309	-2.170287362379134	1.259222893185979	0	-0.4512755702981862	-95.39087679446712	553.7313467792148	41.45629090695896	1.809788278929998	0	-0.5909830877732168	0	3.157058081626474e-08	0	0	2.922150844614478	0
3.115	9.485583954034659	86.82189346276238	-2.309551091807359	1.260549767397025	0	-0.451346506525367	-92.68681197662758	570.354460353676	43.3688055463418	1.809433533687155	0	-0.5930760180957236	0	1.887823231072616e-11	0	0	2.420307152563652	0
3.12	0.6457078903884518	56.2013397402565	-2.392134560827121	1.261897374351955	0	-0.4514516077455725	-89.81490845970714	586.5215264541062	45.46068452599599	1.809079535260227	0	-0.5949858761992934	0	2.664535259100376e-15	0	0	1.883274015143698	0
3.125	-6.568812120784118	27.81285902804988	-0.489030243105568	1.263302366635145	0	-0.4514888042705811	-87.08026389252828	601.7712477112414	47.26299386756969	1.808712858581589	0	-0.5967227865173029	0	1.110223024625157e-16	0	0	1.332216820279768	0
3.13	-5.377405860794342	5.987109894094997	0.6481276553966782	1.265033534845706	0	-0.4515079552456207	-84.52736337524637	615.1228250363581	48.76040511000917	1.808354249471593	0	-0.5982936415982926	0	0	0	0	0.8061994101966121	0
3.135	0.07574861747826059	-0.07242411807432447	-0.009586929102137839	1.26926278061189	0	-0.4519360030093421	-81.75713471672329	626.4154722901642	50.31804491651133	1.807994060715021	0	-0.5997398674366702	0	0	0	0	0.3430746835024649	0
3.14	0.01884642376413012	-0.01592152338764624	-0.002111253640388077	1.275129693456106	0	-0.4525316673985841	-79.18689748464291	635.3134586655073	51.63518462826483	1.807699674857982	0	-0.6010160807487762	0	-8.673617379884035e-19	0	0	-0.004058868102617907	0
3.145	0.1057084542801003	-0.08249890344561329	-0.01115868220016411	1.282180070083716	0	-0.4532053082531011	-76.8627695673532	641.6039706704312	52.39491981487468	1.807568261442615	0	-0.602061477614351	0	-6.938893903907228e-18	0	0	-0.1965106555199441	0
3.15	0.07916414149798898	-0.05667919681294277	-0.007838770646933424	1.290332866382766	0	-0.4539511143680047	-74.44371047337278	645.9154304093365	53.14707594189027	1.807596896696027	0	-0.6029040312421823	0	1.040834085586084e-17	0	0	-0.2917598387534497	0
3.155	0.04282461468143215	-0.02800661693115041	-0.003811728174642714	1.29985186312328	0	-0.4547514283163003	-72.0965213637421	648.7407715637203	53.656732928937	1.807748701917991	0	-0.6035947933531302	0	3.122502256758253e-17	0	0	-0.3407999128213106	0
3.16	0.02371064367787108	-0.0143689499038315	-0.001945592360507981	1.310665098813326	0	-0.4556050704445018	-69.86711817042274	650.1042212336189	53.890247321994	1.808013813922998	0	-0.6041598445955009	0	1.175275154974287e-16	0	0	-0.3485445415657722	0
3.165	-0.001099604048780152	0.0006256958041224788	8.617769813254438e-05	1.322565808365206	0	-0.4565192305290642	-67.69659389356767	650.08836318972	53.96515273449981	1.808389799886418	0	-0.6046120214688135	0	9.276162737242855e-16	0	0	-0.3243991996584725	0
3.17	-0.03063598575282153	0.01643397589549542	0.002308344835314898	1.335501138120217	0	-0.4574846608554777	-65.60172069580288	648.7533024360077	53.92177196852132	1.808873846083524	0	-0.6049543301981642	0	7.092416931531176e-15	0	0	-0.2863717194247215	0
3.175	-0.03842200561695557	0.01951319624564092	0.002772800205329816	1.349427044017266	0	-0.4584869252599399	-63.56249983328384	646.0839995923887	53.69584674791156	1.809452862275662	0	-0.6052008487516816	0	4.943137912882811e-14	0	0	-0.2362588876415543	0
